# xmcd CD database file
#
# Track frame offsets:
#	150
#	13463
#	26740
#	40960
#	55810
#	67823
#	83873
#	102380
#	121568
#	132238
#	145413
#	161398
#	177495
#	192040
#	207242
#	220435
#	230198
#	243413
#	259313
#	279763
#
# Disc length: 3826 seconds
#
# Revision: 3
# Processed by: cddbd v1.5.2PL0 Copyright (c) Steve Scherf et al.
# Submitted via: CDex 1.70beta2
#
DISCID=260ef014
DTITLE=Various Artist - VA - Wolle Mer'n Roi Losse
DYEAR=2001
DGENRE=Schlager - Stimmung
TTITLE0=Medium Terzett - Jetzt geht's los (Mainzer Narhalla Marsch)
TTITLE1=Gunter Bombe - Hände zum Himmel
TTITLE2=Severine - Jetzt geht di Party richtig los
TTITLE3=Die Hähne - Dicke Mädchen haben schöne Namen
TTITLE4=Hofbräuhaus Festkapelle - Liechtensteiner Polka
TTITLE5=Paveier - Buenos Dias, Matthias
TTITLE6=Gottlieb Wendehals - Polonäse Blankenese
TTITLE7=Männergesangsverein Hilfarth e.V. - Auf in den Westen (Potpourri)
TTITLE8=Original Enzian Express - Frau Maier (hat gelbe Unterhosen an)
TTITLE9=Adam and Die Mickey's - Die Runkelroiweroppmaschin
TTITLE10=Old Harry - Moin Freund, Horst der hott e Worscht
TTITLE11=Party Orchester Tommy Parkas and Die Happy Singers - Humbta Rucki Zucki (Potpourri)
TTITLE12=Margit Sponheimer - Und was der Papa braucht, das muss der Papa haben
TTITLE13=Partygeier - Anton aus Tirol
TTITLE14=Willy Millowitsch - Der treue Husar
TTITLE15=Hofbräuhaus Festkapelle - Stimmungslieder (Potpourri)
TTITLE16=Party Orchester Tommy Parkas and Die Happy Singers - Liebe, Wein, Musik vom Rhein (Potpourri)
TTITLE17=Xaver Karl - Sierra Madre
TTITLE18=Party Orchester Tommy Parkas and Die Happy Singers - Der Stimmungs-Hammer (Potpourri)
TTITLE19=Das große Original Karnevalsorchester - Mainzer Narhalla Marsch
EXTD=YEAR: 2001
EXTT0=
EXTT1=
EXTT2=
EXTT3=
EXTT4=
EXTT5=
EXTT6=
EXTT7=
EXTT8=
EXTT9=
EXTT10=
EXTT11=
EXTT12=
EXTT13=
EXTT14=
EXTT15=
EXTT16=
EXTT17=
EXTT18=
EXTT19=
PLAYORDER=
